<svg version="1.1" xmlns="http://www.w3.org/2000/svg" xmlns:xlink="http://www.w3.org/1999/xlink" x="0px" y="0px" width="70px"
	 height="70px" viewBox="0 0 70 70" enable-background="new 0 0 70 70" xml:space="preserve">
	<g id="Layer_6">
		<path d="M53.552,4.139L53.424,4H16.58L0,22.271l34.878,42.242l0.327,0.398l34.563-42.364L70,22.266L53.552,4.139z M5.138,23.809
			h16.491l11.644,34.076L5.138,23.809z M33.221,6.982L21.984,20.827H5.34L17.902,6.982H33.221z M44.276,23.809l-9.162,30.238
			L24.781,23.809H44.276z M47.051,20.827L37.085,6.982h15.02l12.56,13.845H47.051z M25.826,20.827l9.3-11.46l8.249,11.46H25.826z
			M64.889,23.809L37.053,57.926l10.343-34.117H64.889z"/>
	</g>
</svg>
