<svg version="1.1" xmlns="http://www.w3.org/2000/svg" xmlns:xlink="http://www.w3.org/1999/xlink" x="0px" y="0px" width="70px"
	 height="70px" viewBox="0 0 70 70" enable-background="new 0 0 70 70" xml:space="preserve">
	<g>
		<path d="M61.825,12.5C55.156,4.557,45.378,0,34.992,0c-8.204,0-16.189,2.909-22.485,8.188
			C5.345,14.196,0.951,22.631,0.136,31.944c-0.814,9.312,2.046,18.382,8.057,25.542c6.669,7.945,16.451,12.504,26.834,12.504
			c8.204,0,16.189-2.912,22.484-8.189C72.297,49.396,74.232,27.282,61.825,12.5z M58.95,14.914
			c5.218,6.216,7.591,13.885,7.265,21.417c-9.772-0.443-16.905,2.425-22.09,6.604L29.532,25.55
			c5.153-4.497,9.3-11.257,10.435-21.396C47.338,5.333,54.075,9.107,58.95,14.914z M36.229,3.789
			c-1.014,8.942-4.596,14.932-9.071,18.932L16.4,9.906c5.366-3.976,11.896-6.151,18.592-6.151
			C35.406,3.755,35.817,3.773,36.229,3.789z M13.522,12.317l10.665,12.705c-7.786,5.211-16.943,5.715-20.137,5.713
			C5.017,23.653,8.332,17.219,13.522,12.317z M11.069,55.074c-4.89-5.828-7.436-13.071-7.299-20.603
			c3.324-0.017,13.867-0.591,22.785-6.629l14.793,17.622c-6.979,7.198-9.541,16.599-10.339,20.5
			C23.266,64.97,16.153,61.129,11.069,55.074z M34.757,66.225c0.747-3.71,2.979-11.746,8.944-17.957l9.917,11.814
			c-5.366,3.974-11.894,6.15-18.591,6.15C34.937,66.232,34.847,66.226,34.757,66.225z M56.495,57.672l-10.01-11.925
			c4.558-3.58,10.803-6.019,19.337-5.681C64.749,46.605,61.611,52.832,56.495,57.672z"/>
	</g>
</svg>
