<svg version="1.1" xmlns="http://www.w3.org/2000/svg" xmlns:xlink="http://www.w3.org/1999/xlink" x="0px" y="0px" width="70px"
	 height="70px" viewBox="0 0 70 70" enable-background="new 0 0 70 70" xml:space="preserve">
	<g>
		<path d="M22.413,37.696l2.337-2.347L4.908,15.431c0.075-0.063,7.607-6.297,20.939-5.048c8.664,0.814,18.387,8.397,18.483,8.474
			l2.051-2.6c-0.428-0.337-10.578-8.264-20.225-9.17C11.364,5.698,3.101,12.617,2.757,12.912c-0.743,0.637-1.183,1.549-1.208,2.504
			c-0.025,0.955,0.365,1.89,1.046,2.54L22.413,37.696z"/>
		<path d="M53.532,23.353l-2.587,2.066c0.068,0.087,6.892,8.719,7.706,17.395c1.252,13.318-4.984,20.863-5.215,20.93L33.842,43.609
			l-2.374,2.309l19.588,20.125c0.654,0.683,1.55,1.071,2.473,1.071c0.032,0,0.063,0,0.093-0.002c0.955-0.026,1.866-0.468,2.5-1.21
			c0.295-0.345,7.218-8.606,5.829-23.396C61.042,32.854,53.838,23.736,53.532,23.353z"/>
		<path d="M69.639,0.762C69.285,0.278,68.722,0,68.091,0c-0.206,0-0.417,0.029-0.714,0.114L50.775,5.815
			c-0.763,0.21-1.318,0.75-1.485,1.442c-0.168,0.691,0.078,1.425,0.662,1.964l4.563,4.19L20.805,45.835l-5.326-2.308
			c-1.01-0.436-2.385-0.198-3.183,0.542L0.698,54.801c-0.951,0.882-0.688,1.809-0.585,2.073c0.103,0.263,0.54,1.12,1.837,1.12
			h10.216l-0.812,9.251c-0.056,0.636,0.097,1.157,0.453,1.545l0.544,0.523h0.643c0.376,0,0.936-0.132,1.474-0.756l10.478-12.159
			c0.721-0.835,0.914-2.173,0.464-3.177l-2.262-5.047L56.96,15.654l4.168,3.824c0.419,0.386,0.936,0.598,1.459,0.598
			c0.885,0,1.646-0.586,1.929-1.473l5.369-15.991C70.1,1.943,70.01,1.27,69.639,0.762z M14.576,63.956l0.555-6.325
			c0.058-0.66-0.163-1.316-0.605-1.8c-0.441-0.482-1.076-0.759-1.74-0.759H4.711l9.606-8.863l5.516,2.39
			c0.157,0.068,0.471,0.379,0.54,0.533l2.358,5.36L14.576,63.956z M62.155,16.455l-9.086-8.341l13.435-4.611L62.155,16.455z"/>
	</g>
</svg>
