<svg version="1.1" xmlns="http://www.w3.org/2000/svg" xmlns:xlink="http://www.w3.org/1999/xlink" x="0px" y="0px" width="70px"
	 height="70px" viewBox="0 0 70 70" enable-background="new 0 0 70 70" xml:space="preserve">
	<g>
		<path d="M62.746,0H7.252C3.251,0,0,3.135,0,6.986v33.309c0,3.852,3.251,6.982,7.252,6.982h17.784v7.627H14.92v7.934h40.16v-7.934
			H44.961v-7.627h17.785c4,0,7.254-3.131,7.254-6.982V6.986C70,3.135,66.746,0,62.746,0z M51.979,57.895v1.953H18.021v-1.953
			H51.979z M28.141,54.904v-7.441h13.716v7.441H28.141z M66.896,40.295c0,2.205-1.861,3.996-4.15,3.996H7.252
			c-2.291,0-4.148-1.791-4.148-3.996v-4.049h63.792V40.295z M66.896,34.752H3.104V6.986c0-2.204,1.858-3.996,4.148-3.996h55.494
			c2.289,0,4.15,1.792,4.15,3.996V34.752z M35,42.871c1.369,0,2.488-1.072,2.488-2.395c0-1.318-1.119-2.395-2.488-2.395
			c-1.375,0-2.486,1.076-2.486,2.395C32.514,41.799,33.625,42.871,35,42.871z M35,39.58c0.514,0,0.933,0.398,0.933,0.896
			S35.514,41.381,35,41.381c-0.519,0-0.934-0.406-0.934-0.904S34.482,39.58,35,39.58z"/>
	</g>
</svg>
