<svg version="1.1" xmlns="http://www.w3.org/2000/svg" xmlns:xlink="http://www.w3.org/1999/xlink" x="0px" y="0px" width="70px"
	 height="70px" viewBox="0 0 70 70" enable-background="new 0 0 70 70" xml:space="preserve">
	<g>
		<path d="M65.01,10.677H47.221c0.021-0.15,0.047-0.298,0.047-0.454V3.176C47.268,1.425,45.844,0,44.092,0H25.908
			c-1.751,0-3.176,1.425-3.176,3.176v7.047c0,0.155,0.024,0.304,0.047,0.454H4.99c-2.752,0-4.99,2.238-4.99,4.99v41.767
			c0,2.752,2.238,4.99,4.99,4.99h60.02c2.752,0,4.99-2.238,4.99-4.99V15.667C70,12.915,67.762,10.677,65.01,10.677z M25.455,10.223
			V3.176c0-0.247,0.207-0.454,0.453-0.454h18.184c0.246,0,0.453,0.208,0.453,0.454v7.047c0,0.246-0.207,0.454-0.453,0.454H25.908
			C25.662,10.677,25.455,10.469,25.455,10.223z M4.99,13.399h20.917h18.184H65.01c1.252,0,2.268,1.017,2.268,2.268v13.265H40.477
			H29.524H2.722V15.667C2.722,14.416,3.739,13.399,4.99,13.399z M40.932,32.108v7.425c0,0.246-0.209,0.453-0.455,0.453H29.524
			c-0.246,0-0.454-0.207-0.454-0.453v-7.425c0-0.247,0.208-0.454,0.454-0.454h10.953C40.723,31.654,40.932,31.861,40.932,32.108z
			M65.01,59.703H4.99c-1.251,0-2.269-1.018-2.269-2.27v-25.78h23.672c-0.021,0.149-0.046,0.299-0.046,0.454v7.425
			c0,1.75,1.425,3.176,3.176,3.176h10.953c1.752,0,3.176-1.426,3.176-3.176v-7.425c0-0.155-0.025-0.305-0.045-0.454h23.67v25.78
			C67.277,58.686,66.262,59.703,65.01,59.703z"/>
	</g>
</svg>
