<svg version="1.1" xmlns="http://www.w3.org/2000/svg" xmlns:xlink="http://www.w3.org/1999/xlink" x="0px" y="0px" width="70px"
	 height="70px" viewBox="0 0 70 70" enable-background="new 0 0 70 70" xml:space="preserve">
	<g>
		<path d="M65.818,9.899H51.636L47.758,0H22.242l-3.878,9.899H4.18C1.875,9.899,0,11.756,0,14.041v43.075
			c0,2.284,1.875,4.142,4.18,4.142h61.638c2.306,0,4.182-1.857,4.182-4.142V14.041C70,11.756,68.124,9.899,65.818,9.899z
				M24.237,2.76h21.525l2.929,7.139H21.309L24.237,2.76z M67.211,57.115c0,0.763-0.624,1.382-1.393,1.382H4.18
			c-0.768,0-1.393-0.619-1.393-1.382V14.041c0-0.763,0.625-1.381,1.393-1.381h61.638c0.769,0,1.393,0.618,1.393,1.381V57.115z
				M35,19.678c-8.79,0-15.94,7.08-15.94,15.784S26.21,51.246,35,51.246c8.788,0,15.939-7.08,15.939-15.784S43.788,19.678,35,19.678
			z M35,48.614c-7.324,0-13.283-5.901-13.283-13.152c0-7.253,5.959-13.153,13.283-13.153c7.323,0,13.283,5.9,13.283,13.153
			C48.283,42.713,42.323,48.614,35,48.614z M28.021,32.257l2.336,1.254c1.781-3.259,3.127-3.259,8.13-3.259v-2.63
			C33.206,27.622,30.557,27.622,28.021,32.257z"/>
	</g>
</svg>
