<svg version="1.1" xmlns="http://www.w3.org/2000/svg" xmlns:xlink="http://www.w3.org/1999/xlink" x="0px" y="0px" width="70px"
	 height="70px" viewBox="0 0 70 70" enable-background="new 0 0 70 70" xml:space="preserve">
	<g>
		<path d="M66.094,24.545h-2.189V0H6.098v24.545H3.907c-1.482,0-2.687,1.205-2.687,2.687v25.607c0,1.48,1.205,2.686,2.687,2.686
			h2.191V70h12.689v-7.315h32.426V70h12.691V55.524h2.189c1.481,0,2.687-1.205,2.687-2.686V27.231
			C68.78,25.75,67.575,24.545,66.094,24.545z M15.853,59.748v7.315H9.032V55.524h51.936v11.539h-6.818v-7.315H15.853z M60.968,2.935
			v21.61H9.032V2.935H60.968z M65.846,27.479l-0.005,25.11H4.155v-25.11H65.846z"/>
		<path d="M21.082,12.891h27.281v10.682h2.937v-10.93c0-1.481-1.206-2.687-2.688-2.687H20.833c-1.481,0-2.687,1.206-2.687,2.688
			v10.93h2.935V12.891z"/>
	</g>
</svg>
