<svg version="1.1" xmlns="http://www.w3.org/2000/svg" xmlns:xlink="http://www.w3.org/1999/xlink" x="0px" y="0px" width="70px"
	 height="70px" viewBox="0 0 70 70" enable-background="new 0 0 70 70" xml:space="preserve">
	<g>
		<path d="M69.971,20.995c-0.098-0.663-0.449-1.246-0.993-1.644L49.899,5.462c-1.003-0.729-2.665-0.55-3.49,0.386
			c-0.598,0.653-5.995,6.375-11.406,6.375c-4.798-0.011-11.369-6.437-11.435-6.502c-0.853-0.842-2.498-0.968-3.466-0.261
			L1.023,19.349c-0.541,0.395-0.895,0.979-0.995,1.643s0.068,1.325,0.47,1.859l8.224,10.967c0.784,1.046,2.538,1.24,3.533,0.385
			l5.021-4.32v33.265c0,1.847,0.968,2.501,1.798,2.501h31.852c0.427,0,0.83-0.168,1.135-0.473c0.304-0.304,0.665-0.902,0.663-2.027
			V29.885l5.019,4.318c1.002,0.857,2.747,0.662,3.534-0.384l8.227-10.967C69.907,22.312,70.072,21.651,69.971,20.995z M18.381,25.705
			c-0.335,0-0.847,0.096-1.383,0.556l-6.21,5.434l-7.69-10.23L21.688,7.975c1.185,1.135,7.738,7.164,13.331,7.175
			c6.412,0,12.237-5.911,13.391-7.153l18.495,13.447l-7.598,10.24l-6.304-5.424c-0.531-0.459-1.045-0.556-1.383-0.556
			c-0.884,0-1.822,0.71-1.822,2.024v34.991H20.205V27.729C20.205,26.415,19.265,25.705,18.381,25.705z"/>
	</g>
</svg>
