<svg width="164" height="24" viewBox="0 0 164 24" fill="none" xmlns="http://www.w3.org/2000/svg">
<rect width="41" height="24" fill="white"/>
<g clip-path="url(#clip0)">
<path fill-rule="evenodd" clip-rule="evenodd" d="M14.6482 17.9788L16.6766 6.19531H19.9132L17.8848 17.9788H14.6482Z" fill="#00589B"/>
<path fill-rule="evenodd" clip-rule="evenodd" d="M29.6121 6.4882C28.6822 6.16199 27.703 5.99655 26.7169 5.99905C23.5113 5.99905 21.2701 7.59207 21.2545 9.88356C21.239 11.5757 22.8573 12.5276 24.0833 13.0872C25.3092 13.6469 25.7681 14.0281 25.7526 14.5503C25.7526 15.3457 24.755 15.7026 23.8217 15.7026C22.7735 15.7327 21.7326 15.5215 20.7801 15.0857L20.3545 14.8896L19.9111 17.5336C20.6626 17.8729 22.0526 18.1505 23.5091 18.166C26.9098 18.166 29.1022 16.5906 29.1355 14.136C29.151 12.803 28.2842 11.7784 26.4198 10.9324C25.2915 10.3969 24.6042 10.04 24.6042 9.48696C24.6042 8.98239 25.1939 8.4624 26.4531 8.4624C27.2835 8.44156 28.1088 8.59705 28.8739 8.91849L29.1665 9.04849L29.6099 6.49701L29.6121 6.4882Z" fill="#00589B"/>
<path fill-rule="evenodd" clip-rule="evenodd" d="M37.9032 6.21045H35.4004C34.6312 6.21045 34.0437 6.43078 33.7001 7.18653L28.9072 17.9918H32.2924C32.2924 17.9918 32.8488 16.5309 32.9796 16.2291H37.1185C37.216 16.6367 37.5109 17.9918 37.5109 17.9918H40.5036L37.9032 6.21045ZM33.9129 13.8054L35.2053 10.5224C35.1721 10.5555 35.4669 9.83937 35.6287 9.4009L35.8504 10.4078C35.8504 10.4078 36.4734 13.2215 36.6042 13.8054H33.9129Z" fill="#00589B"/>
<path fill-rule="evenodd" clip-rule="evenodd" d="M11.9485 6.21045L8.77614 14.2461L8.45913 12.6156C7.86058 10.7207 6.02059 8.69803 3.96777 7.67347L6.86299 17.9785H10.2814L15.3669 6.21045H11.9485Z" fill="#00589B"/>
<path fill-rule="evenodd" clip-rule="evenodd" d="M5.84962 6.19509H0.633351L0.600098 6.45508C4.63922 7.42896 7.33714 9.78655 8.45887 12.6157L7.30389 7.19541C7.1088 6.44847 6.55237 6.22153 5.84962 6.18848V6.19509Z" fill="#EFA841"/>
</g>
<rect x="45" width="41" height="24" fill="white"/>
<path d="M66.5564 12.5601C68.3508 12.5601 69.8055 11.1055 69.8055 9.31106C69.8055 7.51666 68.3508 6.06201 66.5564 6.06201C64.762 6.06201 63.3074 7.51666 63.3074 9.31106C63.3074 11.1055 64.762 12.5601 66.5564 12.5601Z" fill="#EF9122"/>
<path d="M63.3074 9.31106C63.3074 7.49909 64.7445 6.06201 66.5564 6.06201C68.3684 6.06201 69.8055 7.49909 69.8055 9.31106C69.8055 11.123 68.3684 12.5601 66.5564 12.5601" fill="#F26E21"/>
<path d="M64.3071 6.99924C65.5568 5.7496 67.6187 5.7496 68.8683 6.99924C70.1179 8.24887 70.1179 10.3108 68.8683 11.5604" fill="#F44500"/>
<path d="M47.7495 6.25049H46V12.3737H47.7495C48.6867 12.3737 49.374 12.1238 49.9364 11.6864C50.6237 11.1241 51.061 10.2493 51.061 9.31209C51.061 7.50012 49.7489 6.25049 47.7495 6.25049ZM49.1866 10.8741C48.8117 11.1865 48.3118 11.374 47.562 11.374H47.1872V7.31268H47.4996C48.2493 7.31268 48.7492 7.43764 49.1241 7.81253C49.5615 8.18742 49.8114 8.74976 49.8114 9.31209C49.8739 9.87443 49.6239 10.4992 49.1866 10.8741Z" fill="#595A5B"/>
<path d="M51.6235 6.25049H52.8107V12.3737H51.6235V6.25049Z" fill="#595A5B"/>
<path d="M55.8096 8.62429C55.0598 8.37436 54.8723 8.18692 54.8723 7.87451C54.8723 7.49962 55.2472 7.18721 55.7471 7.18721C56.122 7.18721 56.4344 7.31217 56.7468 7.68706L57.3716 6.8748C56.8718 6.43743 56.2469 6.1875 55.5596 6.1875C54.4975 6.1875 53.6227 6.93728 53.6227 7.93699C53.6227 8.81174 53.9976 9.18663 55.1223 9.624C55.6221 9.81144 55.8096 9.87392 55.9345 9.99889C56.1845 10.1239 56.3094 10.3738 56.3094 10.6237C56.3094 11.1236 55.9345 11.4985 55.3722 11.4985C54.8099 11.4985 54.31 11.186 54.0601 10.6862L53.3103 11.436C53.8726 12.2482 54.5599 12.6231 55.4347 12.6231C56.6843 12.6231 57.5591 11.8109 57.5591 10.6237C57.5591 9.56152 57.1842 9.12414 55.8096 8.62429Z" fill="#595A5B"/>
<path d="M57.9341 9.31153C57.9341 11.1235 59.3712 12.4981 61.1831 12.4981C61.683 12.4981 62.1204 12.3731 62.6827 12.1232V10.6861C62.1828 11.186 61.7455 11.3734 61.2456 11.3734C60.0585 11.3734 59.1837 10.4987 59.1837 9.24905C59.1837 8.0619 60.0585 7.12467 61.1831 7.12467C61.7455 7.12467 62.1828 7.31212 62.6827 7.81197V6.37489C62.1828 6.12496 61.7455 6 61.1831 6C59.4336 6.12496 57.9341 7.56204 57.9341 9.31153Z" fill="#3B3D3F"/>
<path d="M72.4923 10.3743L70.8678 6.25049H69.5557L72.1174 12.5611H72.8047L75.4914 6.25049H74.1793L72.4923 10.3743Z" fill="black"/>
<path d="M75.9912 12.3737H79.4277V11.374H77.2408V9.68699H79.3652V8.6248H77.2408V7.31268H79.4277V6.25049H75.9912V12.3737Z" fill="black"/>
<path d="M82.802 9.81195C83.7392 9.6245 84.2391 8.99969 84.2391 8.06246C84.2391 6.93779 83.4268 6.25049 82.0522 6.25049H80.2402V12.3737H81.4274V9.93691H81.6148L83.3018 12.3737H84.7389L82.802 9.81195ZM81.8023 9.06217H81.4274V7.18771H81.8023C82.5521 7.18771 82.9894 7.50012 82.9894 8.12494C82.9894 8.74976 82.5521 9.06217 81.8023 9.06217Z" fill="#595A5B"/>
<path d="M47.7495 6.25H46V12.3732H47.7495C48.6867 12.3732 49.374 12.1233 49.9364 11.6859C50.6237 11.1236 51.061 10.2488 51.061 9.31161C51.061 7.49964 49.7489 6.25 47.7495 6.25ZM49.1866 10.8737C48.8117 11.1861 48.3118 11.3735 47.562 11.3735H47.1872V7.31219H47.4996C48.2493 7.31219 48.7492 7.43715 49.1241 7.81204C49.5615 8.18693 49.8114 8.74927 49.8114 9.31161C49.8739 9.87394 49.6239 10.4988 49.1866 10.8737Z" fill="#595A5B"/>
<path d="M51.6235 6.25H52.8107V12.3732H51.6235V6.25Z" fill="#595A5B"/>
<path d="M55.8096 8.62478C55.0598 8.37485 54.8723 8.18741 54.8723 7.875C54.8723 7.50011 55.2472 7.1877 55.7471 7.1877C56.122 7.1877 56.4344 7.31266 56.7468 7.68755L57.3716 6.87529C56.8718 6.43792 56.2469 6.18799 55.5596 6.18799C54.4975 6.18799 53.6227 6.93777 53.6227 7.93748C53.6227 8.81222 53.9976 9.18711 55.1223 9.62449C55.6221 9.81193 55.8096 9.87441 55.9345 9.99938C56.1845 10.1243 56.3094 10.3743 56.3094 10.6242C56.3094 11.124 55.9345 11.4989 55.3722 11.4989C54.8099 11.4989 54.31 11.1865 54.0601 10.6867L53.3103 11.4365C53.8726 12.2487 54.5599 12.6236 55.4347 12.6236C56.6843 12.6236 57.5591 11.8113 57.5591 10.6242C57.5591 9.562 57.1842 9.12463 55.8096 8.62478Z" fill="#595A5B"/>
<path d="M61.2456 12.4988C61.7455 12.4988 62.1829 12.3739 62.7452 12.124V10.6869C62.2454 11.1867 61.808 11.3742 61.3081 11.3742C60.121 11.3742 59.2462 10.4994 59.2462 9.2498C59.2462 8.62498 59.4962 8.12512 59.871 7.68775L59.0588 6.87549C58.434 7.43782 57.9966 8.31257 57.9966 9.2498C57.9341 11.1242 59.3712 12.4988 61.2456 12.4988Z" fill="#595A5B"/>
<path d="M82.802 9.81146C83.7392 9.62402 84.2391 8.9992 84.2391 8.06197C84.2391 6.9373 83.4268 6.25 82.0522 6.25H80.2402V12.3732H81.4274V9.93642H81.6148L83.3018 12.3732H84.7389L82.802 9.81146ZM81.8023 9.06168H81.4274V7.18723H81.8023C82.5521 7.18723 82.9894 7.49964 82.9894 8.12445C82.9894 8.74927 82.5521 9.06168 81.8023 9.06168Z" fill="black"/>
<path d="M54.8101 18.0586V14.6221L57.1844 17.0589V14.8095H57.6842V18.246L55.3099 15.8092V18.0586H54.8101Z" fill="#F26E21"/>
<path d="M60.1836 15.3089H58.8714V16.0587H60.1211V16.5586H58.8714V17.6208H60.1836V18.0581H58.3716V14.8091H60.1836V15.3089Z" fill="#F26E21"/>
<path d="M61.7457 15.309V18.0582H61.2459V15.309H60.4961V14.8716H62.4955V15.309H61.7457Z" fill="#F26E21"/>
<path d="M63.2452 14.8725L64.0575 17.0594L64.9322 14.7476L65.7445 17.0594L66.6192 14.8725H67.2441L65.807 18.309L64.9947 15.9972L64.12 18.309L62.7454 14.8725H63.2452Z" fill="#F26E21"/>
<path d="M67.3064 16.4346C67.3116 15.9888 67.491 15.5627 67.8063 15.2474C68.1215 14.9322 68.5476 14.7528 68.9934 14.7476C69.4392 14.7528 69.8653 14.9322 70.1806 15.2474C70.4958 15.5627 70.6752 15.9888 70.6804 16.4346C70.6752 16.8804 70.4958 17.3065 70.1806 17.6217C69.8653 17.937 69.4392 18.1164 68.9934 18.1216C68.556 18.1216 68.1811 17.9966 67.8687 17.6842C67.4938 17.3718 67.3064 16.9969 67.3064 16.4346ZM67.8063 16.4346C67.8063 16.8095 67.9312 17.0594 68.1811 17.3093C68.4311 17.5592 68.681 17.6842 68.9934 17.6842C69.3058 17.6842 69.6182 17.5592 69.8682 17.3093C70.1181 17.0594 70.243 16.8095 70.243 16.4346C70.243 16.0597 70.1181 15.8098 69.8682 15.5598C69.6182 15.3099 69.3683 15.1849 68.9934 15.1849C68.681 15.1849 68.3686 15.3099 68.1187 15.5598C67.9312 15.8098 67.8063 16.1222 67.8063 16.4346Z" fill="#F26E21"/>
<path d="M72.4298 16.6835L73.4296 18.0581H72.8047L71.8675 16.746H71.805V18.0581H71.3052V14.8091H71.8675C72.3049 14.8091 72.6173 14.8716 72.8047 15.059C72.9922 15.2465 73.1171 15.4964 73.1171 15.7463C73.1171 15.9962 73.0547 16.1837 72.9297 16.3086C72.8047 16.5586 72.6173 16.6835 72.4298 16.6835ZM71.805 16.3086H71.93C72.3674 16.3086 72.6173 16.1212 72.6173 15.8088C72.6173 15.4964 72.3674 15.3089 71.93 15.3089H71.7425V16.3086H71.805Z" fill="#F26E21"/>
<path d="M74.3668 16.1222L75.6164 14.81H76.2412L74.8042 16.2471L76.2412 17.9966H75.6164L74.4293 16.5595L74.3043 16.6845V17.9966H73.8044V14.7476H74.3043V16.1222H74.3668Z" fill="#F26E21"/>
<path d="M78.3655 11.3738H77.2408V10.2491L75.9912 8.99951V12.3735H79.3652L78.3655 11.3738Z" fill="#3B3D3F"/>
<path d="M73.8669 6.87628L72.4923 10.3753L70.8678 6.25146H69.5557L72.1174 12.5621H72.8047L74.8041 7.81351L73.8669 6.87628Z" fill="#3B3D3F"/>
<rect x="90" width="44" height="24" fill="white"/>
<g clip-path="url(#clip1)">
<path d="M98.0933 14.745L98.058 14.715C98.058 14.5094 98.064 14.303 98.051 14.0983C98.0418 13.9551 98.0802 13.9096 98.2312 13.911C99.1249 13.9188 100.019 13.911 100.913 13.9177C101.041 13.9177 101.089 13.8902 101.083 13.7529C101.072 13.4594 101.075 13.1652 101.083 12.8709C101.085 12.7623 101.051 12.7316 100.942 12.7319C99.5602 12.7352 98.1788 12.7352 96.7975 12.7319C96.6761 12.7319 96.6518 12.7722 96.6521 12.8829C96.6549 14.5293 96.6549 16.1758 96.6521 17.8222C96.6521 17.9315 96.6824 17.9598 96.79 17.9594C98.1657 17.9559 99.5417 17.9559 100.918 17.9594C101.057 17.9594 101.086 17.9072 101.083 17.783C101.076 17.5071 101.071 17.2302 101.083 16.9546C101.091 16.7976 101.045 16.7595 100.889 16.7609C99.9956 16.769 99.102 16.7627 98.208 16.7676C98.0869 16.7676 98.0418 16.7415 98.051 16.6142C98.0649 16.4559 98.0649 16.2968 98.051 16.1386C98.0326 15.9647 98.0947 15.9269 98.2626 15.9269C99.115 15.9361 99.9674 15.9269 100.82 15.9347C100.97 15.9347 101.008 15.8892 101.003 15.7459C100.992 15.47 100.991 15.1931 101.003 14.9175C101.009 14.7736 100.959 14.7447 100.826 14.7454C99.9148 14.75 99.0035 14.7461 98.0933 14.745Z" fill="#FEFEFE"/>
<path d="M129.288 8.087H129.373C129.616 8.45497 129.871 8.81483 130.114 9.1828C130.543 9.83642 130.976 10.4871 131.413 11.1349C131.432 11.167 131.46 11.1931 131.494 11.21C131.527 11.227 131.564 11.2342 131.602 11.2308C132.078 11.2273 132.554 11.2255 133.03 11.2308C133.14 11.2308 133.167 11.1987 133.167 11.0918C133.164 9.44046 133.164 7.78912 133.167 6.13777C133.167 6.02593 133.132 6.00018 133.026 6.00229C132.673 6.00829 132.32 6.01182 131.968 6.00229C131.824 5.99806 131.78 6.03193 131.781 6.18258C131.788 7.10515 131.785 8.02773 131.785 8.9503V9.1454C131.735 9.11787 131.694 9.07722 131.666 9.02792C131.017 8.05454 130.365 7.08328 129.719 6.10849C129.671 6.03793 129.629 6.00265 129.541 6.00265C129.035 6.00688 128.53 6.00688 128.024 6.00265C127.92 6.00265 127.898 6.03793 127.898 6.13318C127.9 7.79064 127.9 9.44787 127.898 11.1049C127.898 11.2079 127.933 11.2322 128.028 11.2308C128.387 11.2255 128.746 11.2213 129.104 11.2308C129.251 11.2358 129.288 11.1955 129.287 11.0474C129.281 10.0613 129.287 9.07414 129.288 8.087Z" fill="#FEFEFE"/>
<path d="M102.026 7.59362C102.029 7.66418 102.034 7.73474 102.034 7.8053C102.034 8.89228 102.036 9.97926 102.031 11.0662C102.031 11.1978 102.063 11.2356 102.196 11.2321C102.554 11.2225 102.913 11.225 103.272 11.2321C103.38 11.2321 103.41 11.1993 103.41 11.0909C103.407 9.43983 103.407 7.7886 103.41 6.13726C103.41 6.04412 103.392 6.00178 103.285 6.00249C102.627 6.00672 101.968 6.00672 101.31 6.00249C101.228 6.00249 101.206 6.03283 101.183 6.10092C101.051 6.48018 100.915 6.85768 100.778 7.23517C100.537 7.90291 100.296 8.57041 100.053 9.23768C99.9936 9.22109 99.9993 9.17347 99.9859 9.13642C99.623 8.13705 99.2601 7.13745 98.8971 6.13761C98.865 6.04835 98.8294 5.99896 98.7162 6.00002C98.0758 6.00743 97.4351 6.00566 96.7944 6.00002C96.6907 6.00002 96.6533 6.02365 96.6533 6.13585C96.6566 7.78696 96.6566 9.43807 96.6533 11.0892C96.6533 11.1975 96.6854 11.2303 96.7944 11.2282C97.1472 11.2225 97.5 11.2183 97.8528 11.2299C98.0021 11.2349 98.0359 11.1901 98.0352 11.0451C98.0296 9.89353 98.0331 8.74164 98.0352 7.59009H98.0508L98.0652 7.5841C98.3065 8.23007 98.5648 8.87076 98.7846 9.5245C98.9497 10.016 99.1589 10.4908 99.3138 10.9858C99.3406 11.0715 99.341 11.2388 99.5332 11.2303C99.8673 11.2155 100.204 11.2218 100.538 11.2303C100.634 11.2324 100.67 11.1911 100.699 11.1114C101.017 10.2322 101.332 9.35128 101.662 8.47598C101.774 8.17927 101.849 7.86669 102.014 7.59009L102.023 7.59574L102.026 7.59362Z" fill="#FEFEFE"/>
<path d="M116.901 16.0738C117.072 16.0262 117.238 15.9635 117.398 15.8864C117.86 15.6511 118.158 15.2814 118.256 14.7772C118.355 14.2639 118.285 13.7724 117.938 13.3512C117.656 13.0107 117.278 12.7722 116.861 12.755C115.753 12.7094 114.641 12.7377 113.532 12.7324C113.426 12.7324 113.407 12.7737 113.408 12.8671C113.41 14.5176 113.41 16.1681 113.408 17.8187C113.408 17.9274 113.438 17.9598 113.547 17.9574C113.917 17.9514 114.288 17.95 114.657 17.9574C114.781 17.9598 114.816 17.9242 114.814 17.8004C114.808 17.2895 114.811 16.7772 114.812 16.2671C114.812 16.2226 114.792 16.1701 114.836 16.1351C114.903 16.0815 115.322 16.1436 115.382 16.2131C115.8 16.6989 116.229 17.1766 116.631 17.6748C116.804 17.8896 116.988 17.9768 117.266 17.9609C117.707 17.9358 118.15 17.9542 118.642 17.9542C118.045 17.3128 117.484 16.7053 116.901 16.0738Z" fill="#FEFEFE"/>
<path d="M119.035 15.3508C119.035 16.1679 119.035 16.9848 119.035 17.8017C119.035 17.8878 119.027 17.958 119.156 17.9576C120.55 17.9536 121.943 17.9536 123.336 17.9576C123.429 17.9576 123.456 17.9269 123.455 17.8359C123.45 17.548 123.442 17.2594 123.457 16.9723C123.466 16.8033 123.422 16.7581 123.248 16.7606C122.361 16.7705 121.473 16.7634 120.585 16.7676C120.471 16.7676 120.413 16.7514 120.423 16.618C120.436 16.4537 120.436 16.2885 120.423 16.1241C120.41 15.9717 120.453 15.9258 120.613 15.9276C121.483 15.9364 122.353 15.9297 123.224 15.9343C123.345 15.9343 123.388 15.9022 123.384 15.777C123.375 15.4947 123.372 15.2125 123.384 14.9302C123.39 14.7845 123.348 14.7436 123.202 14.745C122.326 14.7521 121.45 14.745 120.574 14.7507C120.464 14.7507 120.416 14.7288 120.424 14.6074C120.436 14.4373 120.436 14.2667 120.424 14.0966C120.413 13.9505 120.459 13.9099 120.607 13.9114C121.5 13.9184 122.394 13.9114 123.288 13.9174C123.413 13.9174 123.465 13.8962 123.459 13.7558C123.447 13.4682 123.446 13.1796 123.459 12.8921C123.465 12.751 123.412 12.7316 123.288 12.7319C121.924 12.7362 120.56 12.7362 119.196 12.7319C119.059 12.7319 119.032 12.7739 119.033 12.9009C119.037 13.717 119.035 14.534 119.035 15.3508Z" fill="#FEFEFE"/>
<path d="M93.1816 6.00578C92.9346 6.00578 92.6877 6.01037 92.4407 6.00366C92.3299 6.00084 92.259 6.02095 92.2121 6.13808C92.1144 6.38151 91.9951 6.61648 91.8896 6.85674C91.733 7.21342 91.5841 7.57328 91.426 7.92925C91.268 8.28523 91.0997 8.63486 90.9427 8.99083C90.7829 9.35246 90.6358 9.71937 90.4763 10.0806C90.3313 10.4105 90.1761 10.7358 90.0279 11.0642C89.9792 11.1726 89.9774 11.2385 90.1397 11.2336C90.5391 11.2216 90.9392 11.2184 91.3393 11.2354C91.492 11.2417 91.5435 11.1715 91.5894 11.059C91.6917 10.8053 91.7983 10.553 91.8985 10.2987C91.9337 10.2048 91.9877 10.1692 92.0939 10.1699C92.8108 10.1752 93.5277 10.172 94.246 10.1738C94.2986 10.1738 94.3603 10.1498 94.3928 10.2306C94.5074 10.5163 94.6397 10.7951 94.7424 11.0854C94.7805 11.1913 94.8182 11.2339 94.9301 11.2329C95.365 11.2279 95.8001 11.2279 96.2354 11.2329C96.36 11.2329 96.3871 11.2131 96.331 11.0893C96.0442 10.4588 95.7641 9.82556 95.4843 9.19122C95.0323 8.1634 94.5823 7.13463 94.1345 6.10492C94.1013 6.02907 94.0579 6.00366 93.9765 6.00507C93.7108 6.00896 93.4462 6.00578 93.1816 6.00578Z" fill="#FEFEFE"/>
<path d="M127.632 11.2278C127.375 10.6535 127.127 10.1031 126.883 9.55026C126.382 8.41047 125.882 7.26975 125.384 6.12808C125.344 6.03494 125.291 6.00002 125.186 6.00108C124.681 6.00743 124.175 6.01095 123.669 6.00108C123.519 5.9979 123.47 6.07164 123.424 6.18735C123.354 6.36376 123.275 6.53486 123.199 6.70809C123.051 7.04255 122.903 7.3763 122.756 7.7111C122.6 8.06743 122.446 8.42517 122.288 8.78115C122.14 9.11561 121.988 9.44759 121.839 9.78134C121.654 10.1934 121.509 10.6238 121.263 11.0063C121.223 11.0691 121.237 11.135 121.247 11.1918C121.257 11.2585 121.333 11.2271 121.38 11.2271C121.797 11.2296 122.214 11.2271 122.631 11.231C122.731 11.231 122.777 11.1989 122.811 11.1079C122.914 10.8352 123.027 10.5663 123.137 10.2964C123.166 10.2238 123.198 10.168 123.298 10.1687C124.032 10.1733 124.767 10.1722 125.502 10.1687C125.569 10.1687 125.615 10.1874 125.64 10.2485C125.737 10.4855 125.825 10.7269 125.934 10.9586C125.979 11.0539 125.977 11.2194 126.114 11.2229C126.612 11.2356 127.11 11.2278 127.632 11.2278Z" fill="#FEFEFE"/>
<path d="M107.624 12.735C107.027 12.735 106.469 12.735 105.911 12.735C105.888 12.7339 105.865 12.7384 105.844 12.7479C105.822 12.7575 105.804 12.7719 105.789 12.79C105.652 12.9502 105.515 13.1101 105.377 13.2698C105.124 13.5627 104.873 13.8572 104.615 14.1455C104.531 14.239 104.447 14.2654 104.346 14.1342C104.205 13.9504 104.06 13.7634 103.903 13.5944C103.685 13.3591 103.468 13.1259 103.28 12.8652C103.222 12.7844 103.153 12.7346 103.048 12.7346C102.519 12.7346 101.99 12.7346 101.461 12.7346C101.423 12.7346 101.368 12.7142 101.357 12.7699C101.353 12.7942 101.386 12.8295 101.408 12.8546C101.687 13.1693 101.965 13.4834 102.245 13.7969C102.666 14.2668 103.081 14.7428 103.512 15.2014C103.603 15.2995 103.582 15.3425 103.512 15.4202C103.206 15.7584 102.901 16.098 102.598 16.439C102.286 16.789 101.967 17.1341 101.665 17.4929C101.54 17.641 101.373 17.7592 101.292 17.9536C101.833 17.9536 102.362 17.9497 102.89 17.9568C103.016 17.9568 103.09 17.9109 103.168 17.8178C103.564 17.3472 103.97 16.8853 104.368 16.4168C104.451 16.3187 104.489 16.3279 104.573 16.4281C104.949 16.8811 105.342 17.321 105.722 17.7709C105.771 17.8349 105.836 17.8856 105.91 17.9183C105.984 17.951 106.065 17.9647 106.145 17.9582C106.586 17.9444 107.027 17.9536 107.468 17.9536H107.693C107.689 17.9356 107.682 17.918 107.674 17.9014C106.949 17.0801 106.228 16.2566 105.494 15.4413C105.384 15.3178 105.388 15.237 105.492 15.1238C105.817 14.7692 106.136 14.4097 106.455 14.0509C106.836 13.624 107.216 13.1947 107.624 12.735Z" fill="#FEFEFE"/>
<path d="M127.039 12.7338C126.564 12.7588 125.981 12.6798 125.403 12.7796C124.817 12.8809 124.366 13.1677 124.141 13.7506C124.012 14.0836 123.996 14.4174 124.062 14.7666C124.166 15.3181 124.623 15.7665 125.176 15.8748C125.571 15.9524 125.969 15.9203 126.366 15.9298C126.601 15.9351 126.836 15.927 127.071 15.9425C127.269 15.9552 127.424 16.1076 127.447 16.2692C127.499 16.6128 127.264 16.76 126.97 16.7614C126.1 16.7656 125.23 16.765 124.359 16.7596C124.225 16.7596 124.191 16.7949 124.195 16.9265C124.205 17.2144 124.205 17.5024 124.195 17.7905C124.191 17.9221 124.227 17.9584 124.36 17.9577C125.248 17.9514 126.136 17.9514 127.023 17.9577C127.227 17.9585 127.429 17.9332 127.626 17.8826C128.083 17.7676 128.435 17.5139 128.668 17.1001C128.872 16.737 128.899 16.3401 128.844 15.945C128.778 15.4768 128.518 15.1335 128.079 14.9289C127.786 14.792 127.475 14.7553 127.159 14.75C126.765 14.7433 126.371 14.7476 125.978 14.75C125.89 14.7521 125.802 14.7408 125.717 14.7165C125.635 14.6923 125.564 14.6426 125.512 14.5746C125.461 14.5067 125.433 14.4241 125.432 14.339C125.428 14.1496 125.516 14.037 125.703 13.9622C125.802 13.9266 125.907 13.9108 126.013 13.9157C126.695 13.9157 127.377 13.9118 128.059 13.9188C128.191 13.9188 128.255 13.8797 128.306 13.759C128.433 13.4588 128.571 13.1635 128.714 12.8703C128.768 12.7595 128.75 12.732 128.628 12.7334C128.132 12.7366 127.638 12.7338 127.039 12.7338Z" fill="#FEFEFE"/>
<path d="M133.895 12.7383C132.889 12.7383 131.908 12.7383 130.927 12.7383C130.715 12.7399 130.505 12.7736 130.304 12.8381C129.813 12.9905 129.438 13.2841 129.258 13.7741C129.123 14.1396 129.129 14.5217 129.23 14.8974C129.357 15.3748 129.683 15.663 130.137 15.8278C130.393 15.9209 130.659 15.928 130.925 15.9308C131.325 15.9347 131.725 15.9209 132.124 15.9382C132.509 15.9551 132.683 16.212 132.564 16.4991C132.5 16.6537 132.33 16.7634 132.131 16.7637C131.267 16.7637 130.402 16.7701 129.539 16.7595C129.363 16.757 129.324 16.8117 129.333 16.9754C129.347 17.2395 129.347 17.5041 129.333 17.7682C129.324 17.9298 129.379 17.9604 129.53 17.959C130.452 17.9506 131.375 17.9562 132.298 17.9499C132.665 17.9482 133.023 17.8349 133.325 17.6249C133.848 17.2651 134.031 16.7383 133.997 16.1336C133.971 15.681 133.802 15.2908 133.394 15.0308C133.06 14.8191 132.692 14.7598 132.311 14.751C131.911 14.7418 131.512 14.7478 131.111 14.7492C131.023 14.751 130.935 14.7402 130.85 14.7171C130.79 14.6993 130.735 14.6677 130.69 14.6249C130.644 14.5821 130.609 14.5293 130.587 14.4705C130.565 14.4118 130.557 14.3488 130.564 14.2865C130.571 14.2242 130.592 14.1644 130.626 14.1117C130.745 13.9265 130.934 13.9173 131.122 13.9163C131.822 13.9135 132.521 13.9163 133.22 13.9163C133.291 13.9163 133.357 13.9279 133.397 13.8411C133.556 13.4785 133.722 13.1204 133.895 12.7383Z" fill="#FEFEFE"/>
<path d="M107.892 15.3519C107.892 16.1682 107.895 16.9846 107.89 17.8014C107.89 17.9248 107.925 17.9605 108.047 17.9577C108.405 17.9499 108.763 17.9506 109.122 17.9577C109.239 17.9601 109.287 17.9368 109.285 17.806C109.277 17.3473 109.288 16.8887 109.278 16.43C109.276 16.2861 109.312 16.243 109.461 16.243C110.048 16.243 110.636 16.272 111.222 16.2286C111.648 16.2035 112.047 16.0162 112.338 15.7054C112.757 15.2594 112.887 14.7235 112.771 14.1178C112.708 13.7925 112.58 13.5081 112.354 13.271C111.966 12.8611 111.464 12.7348 110.92 12.7334C109.968 12.7306 109.015 12.7334 108.066 12.7295C107.932 12.7295 107.889 12.7574 107.889 12.901C107.896 13.7195 107.892 14.5355 107.892 15.3519Z" fill="#FEFEFE"/>
<path d="M121.124 10.0455C120.863 10.0455 120.623 10.049 120.383 10.0455C119.937 10.0377 119.517 9.96225 119.219 9.57805C119.009 9.3078 118.955 8.99028 118.95 8.66535C118.944 8.22541 119.025 7.80981 119.396 7.51028C119.662 7.29507 119.977 7.23862 120.305 7.23615C120.764 7.23192 121.223 7.23016 121.681 7.23792C121.809 7.24039 121.837 7.19981 121.834 7.07986C121.826 6.76869 121.826 6.45728 121.834 6.14564C121.837 6.02463 121.794 6.00029 121.684 6.00452C121.033 6.0204 120.379 5.97207 119.73 6.0398C119.18 6.09837 118.666 6.26701 118.267 6.66779C117.842 7.08714 117.592 7.65275 117.568 8.24975C117.533 8.94124 117.56 9.61298 117.956 10.2254C118.344 10.8252 118.923 11.0937 119.584 11.2133C119.869 11.2644 120.169 11.226 120.463 11.2274C120.514 11.2274 120.566 11.2362 120.596 11.1706C120.768 10.8023 120.941 10.4371 121.124 10.0455Z" fill="#FEFEFE"/>
<path d="M116.819 8.61046C116.819 7.79408 116.817 6.97734 116.822 6.16096C116.822 6.04101 116.795 5.99796 116.667 6.00114C116.298 6.00961 115.926 6.00714 115.557 6.00114C115.454 6.00114 115.416 6.02301 115.416 6.13626C115.42 7.78714 115.42 9.43778 115.416 11.0882C115.416 11.2148 115.466 11.2293 115.571 11.2293C115.924 11.2247 116.277 11.2205 116.63 11.2311C116.778 11.2353 116.829 11.205 116.827 11.042C116.814 10.2316 116.819 9.42084 116.819 8.61046Z" fill="#FEFEFE"/>
<path d="M102.009 7.59107C101.846 7.86766 101.77 8.18025 101.657 8.47695C101.327 9.35225 101.013 10.2332 100.694 11.1124C100.665 11.1921 100.629 11.2334 100.533 11.2313C100.198 11.2246 99.8622 11.2182 99.5281 11.2313C99.3358 11.2397 99.3355 11.0725 99.3087 10.9868C99.1534 10.4929 98.9442 10.0169 98.7795 9.52548C98.5597 8.87174 98.3014 8.23105 98.0601 7.58507C98.0516 7.56602 98.0432 7.54732 98.0344 7.52827L98.0301 7.59107C98.0301 8.74261 98.0259 9.89451 98.0301 11.0461C98.0301 11.1911 97.997 11.2359 97.8477 11.2309C97.4949 11.2193 97.1421 11.2235 96.7893 11.2292C96.6817 11.2313 96.6482 11.1985 96.6482 11.0902C96.6515 9.43904 96.6515 7.78793 96.6482 6.13682C96.6482 6.02463 96.6866 6.00029 96.7893 6.00099C97.43 6.00522 98.0707 6.00699 98.711 6.00099C98.8243 6.00099 98.8599 6.04933 98.892 6.13858C99.2538 7.13842 99.6167 8.13803 99.9808 9.1374C99.9942 9.17444 99.9885 9.22207 100.047 9.23865C100.29 8.57115 100.532 7.90341 100.774 7.23544C100.91 6.85795 101.047 6.48045 101.178 6.10119C101.202 6.0331 101.223 6.00205 101.305 6.00276C101.964 6.00722 102.622 6.00722 103.281 6.00276C103.387 6.00276 103.406 6.04439 103.406 6.13753C103.404 7.78887 103.404 9.4401 103.406 11.0912C103.406 11.1971 103.376 11.2323 103.267 11.2323C102.909 11.226 102.55 11.2235 102.192 11.2323C102.059 11.2359 102.026 11.1971 102.027 11.0665C102.032 9.97953 102.03 8.89255 102.029 7.80557C102.029 7.73501 102.025 7.66445 102.022 7.59389V7.53638L102.009 7.59107Z" fill="#0270CF"/>
<path d="M129.288 8.0874C129.288 9.07525 129.282 10.0631 129.288 11.0488C129.288 11.1956 129.253 11.2372 129.105 11.2323C128.746 11.2213 128.388 11.2256 128.029 11.2323C127.932 11.2323 127.898 11.2093 127.899 11.1063C127.902 9.4491 127.902 7.79187 127.899 6.13465C127.899 6.03798 127.921 6.00305 128.024 6.00411C128.53 6.00905 129.036 6.00905 129.541 6.00411C129.63 6.00411 129.672 6.03763 129.719 6.10995C130.366 7.08474 131.018 8.056 131.667 9.02938C131.695 9.07869 131.736 9.11933 131.786 9.14687V8.95177C131.786 8.02919 131.789 7.10662 131.782 6.18404C131.782 6.03339 131.825 5.99952 131.968 6.00376C132.321 6.0147 132.674 6.01117 133.027 6.00376C133.133 6.00164 133.168 6.0274 133.168 6.13923C133.164 7.79082 133.164 9.44216 133.168 11.0933C133.168 11.1991 133.141 11.2344 133.031 11.2323C132.555 11.2263 132.078 11.228 131.602 11.2323C131.565 11.2357 131.528 11.2285 131.494 11.2115C131.461 11.1945 131.433 11.1685 131.414 11.1363C130.976 10.4893 130.543 9.83859 130.114 9.18426C129.873 8.81629 129.618 8.45643 129.373 8.08846C129.361 8.0366 129.358 7.97768 129.276 7.96886C129.281 8.01049 129.284 8.04895 129.288 8.0874Z" fill="#0270CF"/>
<path d="M116.901 16.074C117.484 16.7055 118.045 17.3131 118.638 17.9552C118.148 17.9552 117.704 17.9368 117.262 17.9619C116.985 17.9777 116.804 17.8913 116.627 17.6758C116.227 17.1772 115.798 16.6999 115.381 16.2141C115.321 16.1435 114.901 16.0825 114.834 16.1361C114.791 16.1714 114.811 16.2236 114.811 16.2681C114.811 16.7793 114.806 17.2912 114.813 17.8013C114.813 17.9252 114.78 17.9608 114.656 17.9583C114.286 17.9502 113.915 17.9516 113.545 17.9583C113.437 17.9601 113.406 17.9284 113.406 17.8197C113.409 16.1691 113.409 14.5185 113.406 12.8681C113.406 12.7746 113.424 12.7326 113.53 12.7334C114.64 12.7386 115.753 12.7104 116.86 12.7559C117.276 12.7732 117.655 13.0117 117.937 13.3522C118.285 13.7734 118.356 14.2649 118.254 14.7782C118.157 15.2823 117.859 15.6521 117.397 15.8874C117.237 15.9642 117.072 16.0266 116.901 16.074ZM115.641 14.9648V14.9624C115.882 14.9624 116.123 14.9701 116.363 14.9599C116.575 14.9511 116.755 14.8685 116.849 14.666C116.89 14.5838 116.907 14.4917 116.899 14.4002C116.89 14.3087 116.856 14.2214 116.801 14.1481C116.668 13.9632 116.464 13.9195 116.254 13.9167C115.814 13.911 115.372 13.9167 114.933 13.9131C114.846 13.9131 114.806 13.9322 114.808 14.0295C114.814 14.3054 114.813 14.5813 114.808 14.8572C114.808 14.9426 114.835 14.968 114.919 14.9666C115.16 14.962 115.4 14.9648 115.641 14.9648Z" fill="#0270CF"/>
<path d="M109.798 11.1503C109.798 9.50585 109.804 7.86109 109.796 6.21633C109.796 6.03358 109.845 5.9983 110.018 6.00006C110.922 6.00923 111.827 6.00006 112.732 6.00606C113.186 6.00888 113.628 6.07662 114.012 6.34898C114.435 6.65027 114.647 7.06058 114.674 7.5792C114.703 8.1084 114.535 8.55399 114.156 8.91808C113.963 9.10218 113.724 9.2318 113.464 9.29382C113.29 9.33686 113.327 9.39966 113.417 9.49668C113.893 10.0075 114.367 10.5196 114.839 11.0328C114.889 11.0868 114.933 11.1464 114.999 11.2275C114.426 11.2275 113.882 11.2275 113.339 11.2275C113.31 11.2265 113.281 11.2188 113.256 11.2051C113.231 11.1913 113.209 11.1718 113.192 11.1481C112.743 10.6173 112.292 10.0881 111.84 9.56053C111.743 9.44658 111.395 9.36896 111.243 9.42612C111.17 9.45399 111.2 9.51538 111.2 9.56089C111.196 10.0601 111.191 10.5597 111.2 11.0589C111.202 11.2 111.159 11.2353 111.023 11.2325C110.63 11.2247 110.237 11.2325 109.843 11.2325C109.796 11.2325 109.799 11.1944 109.798 11.1503ZM112.032 7.201V7.19606C111.791 7.19606 111.55 7.19818 111.309 7.19606C111.229 7.19606 111.192 7.21617 111.193 7.30402C111.197 7.58626 111.195 7.8685 111.193 8.15074C111.193 8.21213 111.209 8.25199 111.281 8.25164C111.781 8.2467 112.281 8.2594 112.779 8.234C113.105 8.21742 113.296 7.99339 113.286 7.71327C113.276 7.43314 113.058 7.21934 112.735 7.20523C112.502 7.19147 112.267 7.201 112.032 7.201Z" fill="#0270CF"/>
<path d="M98.0934 14.7454C99.0044 14.7454 99.9157 14.7503 100.827 14.7454C100.961 14.7454 101.011 14.7736 101.003 14.9175C100.991 15.1931 100.992 15.47 101.003 15.7459C101.009 15.8892 100.971 15.9361 100.82 15.9347C99.9679 15.9273 99.1155 15.9347 98.2631 15.9269C98.0952 15.9251 98.0331 15.9622 98.0514 16.1386C98.0654 16.2968 98.0654 16.456 98.0514 16.6142C98.0423 16.7415 98.0867 16.7683 98.2084 16.7676C99.1017 16.7627 99.9954 16.7676 100.89 16.7609C101.045 16.7609 101.092 16.7962 101.083 16.9546C101.07 17.2302 101.075 17.5071 101.083 17.783C101.087 17.9072 101.057 17.9594 100.918 17.9594C99.5426 17.9545 98.1667 17.9545 96.7905 17.9594C96.6847 17.9594 96.6522 17.9315 96.6526 17.8222C96.6561 16.1758 96.6561 14.5293 96.6526 12.8829C96.6526 12.7722 96.6766 12.7312 96.7979 12.7319C98.1795 12.7362 99.561 12.7362 100.942 12.7319C101.05 12.7319 101.083 12.7623 101.083 12.8709C101.077 13.1645 101.074 13.4587 101.083 13.7529C101.088 13.8902 101.041 13.9184 100.913 13.9177C100.02 13.9124 99.1261 13.9177 98.2317 13.911C98.0807 13.911 98.0423 13.9551 98.0514 14.0983C98.0645 14.303 98.0571 14.5094 98.0585 14.715C98.0557 14.7433 98.0677 14.7507 98.0934 14.7454Z" fill="#0270CF"/>
<path d="M104.47 11.1502C104.47 9.50475 104.475 7.85928 104.47 6.21381C104.47 6.04976 104.5 5.99896 104.677 6.00002C106.023 6.00848 107.368 6.00637 108.714 6.00002C108.846 6.00002 108.899 6.02295 108.893 6.16971C108.88 6.45725 108.881 6.74584 108.893 7.03337C108.898 7.1692 108.854 7.19813 108.725 7.19742C107.837 7.19178 106.95 7.19742 106.062 7.19107C105.914 7.19107 105.849 7.2193 105.863 7.38053C105.877 7.53872 105.878 7.69778 105.866 7.8561C105.855 7.9944 105.909 8.02016 106.036 8.01945C106.899 8.01416 107.764 8.01945 108.627 8.01275C108.783 8.01275 108.829 8.04803 108.82 8.20538C108.806 8.46944 108.806 8.73406 108.82 8.99812C108.829 9.16182 108.793 9.2151 108.615 9.21298C107.757 9.20204 106.899 9.21086 106.039 9.20522C105.905 9.20522 105.849 9.23274 105.863 9.37739C105.876 9.53553 105.876 9.69446 105.863 9.85261C105.851 10.0022 105.888 10.053 106.052 10.0512C106.939 10.0417 107.827 10.0491 108.714 10.0438C108.847 10.0438 108.898 10.0692 108.893 10.2142C108.882 10.537 108.893 10.8606 108.893 11.1837C108.893 11.206 108.857 11.231 108.813 11.231H104.514C104.477 11.2172 104.481 11.1784 104.47 11.1502Z" fill="#0270CF"/>
<path d="M119.035 15.3505C119.035 14.5338 119.038 13.7167 119.032 12.9C119.032 12.7729 119.058 12.7303 119.195 12.731C120.559 12.7366 121.923 12.7366 123.287 12.731C123.411 12.731 123.464 12.7497 123.458 12.8911C123.445 13.1787 123.446 13.4673 123.458 13.7548C123.464 13.8959 123.413 13.9171 123.288 13.9164C122.394 13.9114 121.501 13.9164 120.606 13.9104C120.458 13.9104 120.412 13.9495 120.423 14.0956C120.435 14.2657 120.435 14.4364 120.423 14.6065C120.415 14.7278 120.463 14.75 120.574 14.7497C121.449 14.7455 122.325 14.7497 123.201 14.7441C123.349 14.7441 123.389 14.7836 123.383 14.9293C123.371 15.2115 123.373 15.4938 123.383 15.776C123.387 15.9012 123.344 15.9337 123.223 15.9333C122.353 15.9288 121.483 15.9355 120.612 15.9266C120.452 15.9249 120.409 15.9707 120.422 16.1232C120.435 16.2875 120.435 16.4527 120.422 16.6171C120.413 16.7504 120.47 16.767 120.584 16.7667C121.472 16.7624 122.36 16.7695 123.247 16.7596C123.42 16.7596 123.465 16.803 123.457 16.9713C123.441 17.2585 123.45 17.5471 123.454 17.8349C123.454 17.926 123.429 17.957 123.335 17.9567C121.942 17.9541 120.548 17.9541 119.156 17.9567C119.026 17.9567 119.034 17.8861 119.034 17.8007C119.036 16.985 119.036 16.1683 119.035 15.3505Z" fill="#0270CF"/>
<path d="M93.1798 6.00537C93.4444 6.00537 93.709 6.00855 93.9733 6.00537C94.0547 6.00537 94.0981 6.02936 94.1313 6.10522C94.5794 7.13352 95.0291 8.1617 95.4804 9.18976C95.7595 9.8248 96.0396 10.4574 96.3271 11.0878C96.3832 11.2117 96.3561 11.2328 96.2315 11.2314C95.7969 11.2262 95.3618 11.2262 94.9262 11.2314C94.8143 11.2314 94.7766 11.1909 94.7385 11.084C94.6355 10.7943 94.5035 10.5149 94.3889 10.2291C94.3564 10.1483 94.2947 10.1723 94.2421 10.1723C93.5248 10.1705 92.8079 10.1723 92.09 10.1684C91.9842 10.1684 91.9312 10.2037 91.8945 10.2972C91.7943 10.5516 91.6878 10.8038 91.5855 11.0575C91.5396 11.1711 91.4881 11.2413 91.3354 11.2339C90.9363 11.217 90.5363 11.2201 90.1358 11.2321C89.9735 11.2371 89.9753 11.1711 90.024 11.0628C90.1722 10.7343 90.3274 10.409 90.4724 10.0792C90.6319 9.7179 90.779 9.35099 90.9388 8.98937C91.0958 8.63374 91.2644 8.28377 91.4221 7.92779C91.5798 7.57181 91.7291 7.21195 91.8857 6.85527C91.9916 6.61501 92.1105 6.38005 92.2082 6.13662C92.2551 6.01949 92.326 5.99938 92.4368 6.0022C92.6862 6.00996 92.9332 6.00537 93.1798 6.00537ZM93.8953 9.02712C93.6698 8.48839 93.4575 7.97965 93.2444 7.47126C93.2218 7.41799 93.1967 7.36542 93.1611 7.28675C92.923 7.85546 92.6936 8.4016 92.4654 8.94809C92.4266 9.04088 92.4978 9.02641 92.5472 9.02641C92.9875 9.02712 93.4275 9.02712 93.8953 9.02712Z" fill="#0270CF"/>
<path d="M127.631 11.2282C127.11 11.2282 126.612 11.2359 126.114 11.2229C125.977 11.2194 125.979 11.0539 125.934 10.9586C125.825 10.7269 125.737 10.4855 125.64 10.2485C125.615 10.1874 125.569 10.1687 125.502 10.1687C124.767 10.1715 124.032 10.1726 123.298 10.1687C123.198 10.1687 123.167 10.2238 123.137 10.2964C123.028 10.567 122.914 10.8359 122.811 11.1079C122.776 11.1989 122.731 11.2324 122.632 11.231C122.215 11.2254 121.797 11.231 121.38 11.2271C121.334 11.2271 121.257 11.2578 121.247 11.1918C121.238 11.135 121.223 11.0691 121.264 11.0063C121.511 10.6238 121.655 10.1948 121.839 9.78134C121.988 9.44759 122.14 9.11561 122.289 8.78115C122.446 8.42518 122.6 8.06743 122.756 7.7111C122.903 7.3763 123.052 7.04255 123.199 6.70809C123.275 6.53486 123.355 6.3634 123.425 6.18735C123.47 6.07128 123.519 5.9979 123.669 6.00108C124.175 6.01237 124.68 6.00884 125.187 6.00108C125.292 6.00108 125.344 6.03636 125.384 6.12808C125.882 7.26928 126.382 8.41001 126.883 9.55026C127.127 10.1035 127.376 10.6538 127.631 11.2282ZM124.408 7.27928C124.165 7.85822 123.941 8.39307 123.715 8.92686C123.68 9.01506 123.723 9.02635 123.795 9.026C124.2 9.026 124.606 9.02317 125.011 9.026C125.123 9.026 125.123 8.98719 125.087 8.9004C124.865 8.37719 124.646 7.85117 124.408 7.27928Z" fill="#0270CF"/>
<path d="M107.624 12.7353C107.216 13.1939 106.836 13.6243 106.455 14.0523C106.135 14.4111 105.816 14.7706 105.492 15.1251C105.388 15.2387 105.383 15.3195 105.494 15.4427C106.225 16.2601 106.949 17.0818 107.674 17.9031C107.682 17.9197 107.688 17.9372 107.692 17.9553H107.467C107.027 17.9553 106.585 17.9461 106.145 17.9599C106.064 17.9664 105.983 17.9527 105.909 17.92C105.835 17.8873 105.771 17.8366 105.721 17.7726C105.341 17.3227 104.949 16.8828 104.572 16.4298C104.488 16.3296 104.45 16.3204 104.367 16.4185C103.969 16.887 103.563 17.3488 103.168 17.8195C103.089 17.9126 103.016 17.9606 102.89 17.9585C102.361 17.9514 101.832 17.9553 101.291 17.9553C101.372 17.7609 101.538 17.6427 101.664 17.4945C101.967 17.1357 102.285 16.7907 102.598 16.4407C102.902 16.1006 103.206 15.761 103.511 15.4218C103.582 15.3449 103.603 15.3012 103.511 15.2031C103.08 14.7423 102.664 14.2671 102.245 13.7965C101.966 13.4832 101.687 13.1691 101.41 12.8541C101.387 12.8291 101.354 12.7938 101.358 12.7695C101.369 12.7151 101.425 12.7342 101.462 12.7342C101.991 12.7342 102.521 12.7342 103.05 12.7342C103.154 12.7342 103.224 12.7839 103.282 12.8647C103.469 13.1255 103.686 13.3587 103.904 13.594C104.061 13.763 104.205 13.9499 104.347 14.1338C104.449 14.265 104.532 14.2396 104.616 14.145C104.874 13.8568 105.125 13.5622 105.379 13.2694C105.517 13.1099 105.654 12.95 105.79 12.7896C105.805 12.7715 105.824 12.757 105.845 12.7475C105.866 12.7379 105.889 12.7335 105.913 12.7345C106.469 12.7356 107.027 12.7353 107.624 12.7353Z" fill="#0270CF"/>
<path d="M127.039 12.7338C127.639 12.7338 128.133 12.7366 128.627 12.7317C128.749 12.7317 128.768 12.7578 128.713 12.8686C128.57 13.1617 128.431 13.457 128.304 13.7573C128.254 13.8779 128.189 13.9185 128.057 13.9171C127.376 13.91 126.694 13.9136 126.011 13.9139C125.906 13.909 125.8 13.9249 125.701 13.9605C125.514 14.0353 125.427 14.1478 125.43 14.3373C125.431 14.4224 125.46 14.5049 125.511 14.5729C125.562 14.6408 125.634 14.6905 125.716 14.7148C125.8 14.739 125.888 14.7503 125.976 14.7483C126.37 14.7465 126.764 14.7423 127.158 14.7483C127.475 14.7536 127.784 14.7903 128.078 14.9272C128.516 15.1311 128.776 15.4751 128.843 15.9432C128.899 16.3384 128.872 16.7353 128.666 17.0983C128.434 17.5128 128.081 17.7665 127.626 17.8819C127.429 17.9325 127.226 17.9578 127.023 17.957C126.135 17.9514 125.248 17.9514 124.36 17.957C124.226 17.957 124.19 17.9217 124.195 17.7898C124.205 17.5019 124.205 17.2139 124.195 16.9258C124.19 16.7952 124.225 16.7578 124.359 16.7589C125.229 16.7652 126.1 16.7658 126.97 16.7607C127.264 16.7607 127.499 16.6121 127.446 16.2685C127.422 16.1069 127.27 15.9545 127.071 15.9418C126.837 15.9263 126.601 15.9344 126.365 15.9291C125.969 15.9196 125.571 15.9517 125.175 15.8741C124.624 15.7651 124.165 15.3181 124.062 14.7666C123.996 14.4174 124.012 14.0836 124.141 13.7506C124.366 13.1684 124.817 12.8809 125.403 12.7796C125.98 12.6798 126.564 12.7588 127.039 12.7338Z" fill="#0270CF"/>
<path d="M133.895 12.7387C133.722 13.1201 133.556 13.4796 133.396 13.8405C133.357 13.9273 133.29 13.9157 133.22 13.9157C132.52 13.9157 131.821 13.9157 131.121 13.9157C130.934 13.9157 130.744 13.9259 130.625 14.1111C130.592 14.1638 130.57 14.2236 130.564 14.2859C130.557 14.3482 130.565 14.4112 130.586 14.4699C130.608 14.5286 130.643 14.5815 130.689 14.6243C130.735 14.6671 130.79 14.6987 130.85 14.7165C130.935 14.7395 131.023 14.7504 131.111 14.7486C131.51 14.7486 131.91 14.7412 132.31 14.7504C132.691 14.7592 133.059 14.8174 133.393 15.0302C133.802 15.2902 133.971 15.6804 133.996 16.133C134.032 16.7377 133.847 17.2645 133.324 17.6243C133.023 17.8343 132.664 17.9476 132.297 17.9492C131.374 17.9556 130.452 17.9492 129.529 17.9584C129.378 17.9584 129.323 17.9291 129.332 17.7675C129.346 17.5035 129.346 17.2389 129.332 16.9748C129.324 16.8111 129.361 16.7564 129.539 16.7589C130.402 16.7695 131.268 16.7642 132.13 16.7631C132.33 16.7631 132.5 16.653 132.564 16.4985C132.682 16.2113 132.509 15.9545 132.124 15.9376C131.725 15.9203 131.325 15.934 130.924 15.9302C130.658 15.9273 130.393 15.9203 130.136 15.8271C129.683 15.6624 129.357 15.3741 129.229 14.8968C129.128 14.5211 129.123 14.139 129.257 13.7735C129.438 13.2834 129.813 12.9899 130.303 12.8375C130.505 12.7728 130.715 12.739 130.926 12.7373C131.908 12.7391 132.889 12.7387 133.895 12.7387Z" fill="#0270CF"/>
<path d="M107.892 15.3526C107.892 14.5362 107.896 13.7198 107.888 12.9034C107.888 12.7598 107.932 12.7312 108.065 12.7319C109.017 12.7376 109.97 12.7319 110.919 12.7358C111.463 12.7358 111.963 12.8635 112.353 13.2735C112.579 13.5113 112.706 13.7956 112.77 14.1202C112.886 14.7246 112.756 15.2605 112.337 15.7078C112.046 16.0186 111.647 16.2059 111.221 16.231C110.635 16.2744 110.047 16.2469 109.46 16.2455C109.311 16.2455 109.275 16.2885 109.278 16.4325C109.287 16.8911 109.278 17.3498 109.284 17.8084C109.286 17.9393 109.238 17.9626 109.121 17.9601C108.762 17.9534 108.404 17.9527 108.046 17.9601C107.923 17.9629 107.888 17.9273 107.889 17.8038C107.895 16.9853 107.892 16.1689 107.892 15.3526ZM110.106 15.0661C110.347 15.0661 110.588 15.0735 110.828 15.0661C111.248 15.0506 111.489 14.733 111.39 14.3375C111.327 14.0814 111.12 13.9276 110.791 13.9209C110.327 13.9114 109.863 13.9209 109.399 13.9159C109.305 13.9159 109.279 13.9484 109.28 14.0384C109.285 14.3375 109.288 14.6381 109.28 14.9363C109.276 15.0516 109.319 15.0735 109.421 15.0707C109.648 15.0608 109.877 15.0661 110.106 15.0661Z" fill="#0270CF"/>
<path d="M121.124 10.0459C120.941 10.434 120.768 10.8026 120.598 11.1713C120.568 11.2369 120.517 11.2285 120.465 11.2281C120.172 11.2281 119.871 11.2652 119.587 11.214C118.925 11.0955 118.347 10.8259 117.958 10.2262C117.561 9.61298 117.533 8.94125 117.57 8.25046C117.594 7.65292 117.844 7.08674 118.27 6.66709C118.669 6.26631 119.183 6.09767 119.733 6.0391C120.383 5.96854 121.036 6.01794 121.687 6.00382C121.797 6.00135 121.84 6.0257 121.837 6.14494C121.828 6.45612 121.828 6.76752 121.837 7.07916C121.84 7.19911 121.811 7.23969 121.684 7.23722C121.225 7.22946 120.767 7.23122 120.308 7.23545C119.98 7.23792 119.665 7.29437 119.399 7.50958C119.028 7.80911 118.947 8.22471 118.953 8.66465C118.958 8.98958 119.012 9.3071 119.222 9.57735C119.519 9.96155 119.939 10.036 120.386 10.0448C120.624 10.0494 120.863 10.0459 121.124 10.0459Z" fill="#0270CF"/>
<path d="M116.819 8.61108C116.819 9.42253 116.814 10.234 116.824 11.0429C116.826 11.2059 116.775 11.2363 116.627 11.232C116.274 11.2215 115.921 11.2257 115.568 11.2303C115.462 11.2303 115.413 11.2162 115.413 11.0892C115.418 9.43852 115.418 7.78788 115.413 6.13724C115.413 6.02399 115.452 6.0007 115.554 6.00212C115.924 6.00741 116.295 6.00988 116.664 6.00212C116.792 5.99894 116.82 6.04198 116.819 6.16193C116.817 6.97796 116.819 7.7947 116.819 8.61108Z" fill="#0270CF"/>
<path d="M129.288 8.08918C129.284 8.05069 129.28 8.01219 129.276 7.96875C129.357 7.97758 129.36 8.03656 129.373 8.08847L129.288 8.08918Z" fill="#BFDBF2"/>
<path d="M104.47 11.1519C104.481 11.1815 104.477 11.219 104.514 11.2345C104.497 11.3111 104.451 11.267 104.432 11.2454C104.387 11.1967 104.415 11.166 104.47 11.1519Z" fill="#BFDBF2"/>
<path d="M98.0308 7.59484L98.035 7.53125C98.044 7.55054 98.0526 7.56947 98.0611 7.58876L98.0465 7.59484H98.0308Z" fill="#BFDBF2"/>
<path d="M102.009 7.5931L102.026 7.53809V7.59631L102.017 7.59881L102.009 7.5931Z" fill="#BFDBF2"/>
<path d="M98.0973 14.7494C98.0693 14.7553 98.0558 14.745 98.0578 14.7158L98.0973 14.7494Z" fill="#BFDBF2"/>
<path d="M115.641 14.9631C115.4 14.9631 115.16 14.9603 114.919 14.9631C114.835 14.9631 114.807 14.9391 114.808 14.8538C114.813 14.5779 114.813 14.302 114.808 14.0261C114.808 13.9287 114.846 13.9093 114.933 13.9097C115.373 13.9132 115.815 13.9076 116.254 13.9132C116.466 13.916 116.668 13.9598 116.801 14.1446C116.857 14.218 116.89 14.3053 116.899 14.3968C116.907 14.4883 116.89 14.5803 116.849 14.6626C116.755 14.8651 116.574 14.9476 116.364 14.9564C116.123 14.9667 115.882 14.9589 115.641 14.9589L115.641 14.9631Z" fill="#FEFEFE"/>
<path d="M112.032 7.20241C112.267 7.20241 112.503 7.19394 112.738 7.20452C113.06 7.21899 113.279 7.4282 113.289 7.71256C113.299 7.99691 113.108 8.21671 112.782 8.23329C112.283 8.25869 111.783 8.24599 111.284 8.25093C111.213 8.25093 111.195 8.21142 111.196 8.15003C111.196 7.86779 111.198 7.58555 111.196 7.30331C111.196 7.21546 111.231 7.19429 111.312 7.19535C111.552 7.19888 111.793 7.19535 112.034 7.19535L112.032 7.20241Z" fill="#FEFEFE"/>
<path d="M93.8976 9.02677C93.4298 9.02677 92.9898 9.02677 92.5495 9.02677C92.5001 9.02677 92.4289 9.04124 92.4677 8.94845C92.6959 8.40196 92.9263 7.85477 93.1634 7.28711C93.1987 7.36614 93.2241 7.41835 93.2467 7.47162C93.4598 7.9786 93.6721 8.48734 93.8976 9.02677Z" fill="#FEFEFE"/>
<path d="M124.407 7.28125C124.646 7.85314 124.866 8.37917 125.087 8.90414C125.122 8.99093 125.122 9.03079 125.011 9.02973C124.606 9.02585 124.2 9.02762 123.795 9.02973C123.724 9.02973 123.678 9.0188 123.715 8.9306C123.941 8.39504 124.165 7.8602 124.407 7.28125Z" fill="#FEFEFE"/>
<path d="M110.107 15.0652C109.878 15.0652 109.648 15.061 109.42 15.0673C109.318 15.0702 109.275 15.0483 109.279 14.9329C109.288 14.6337 109.284 14.3332 109.279 14.035C109.279 13.9451 109.304 13.9116 109.398 13.9126C109.862 13.9169 110.326 13.908 110.79 13.9176C111.121 13.9243 111.327 14.0781 111.39 14.3342C111.488 14.7297 111.248 15.0472 110.828 15.0628C110.587 15.0716 110.346 15.0628 110.105 15.0628L110.107 15.0652Z" fill="#FEFEFE"/>
</g>
<path d="M154.887 5.71631H147.19V18.2871H154.887V5.71631Z" fill="#FF5F00"/>
<path d="M147.981 12.0048C147.98 10.7943 148.254 9.59949 148.783 8.51074C149.312 7.42199 150.082 6.46783 151.034 5.72047C149.855 4.79364 148.438 4.2173 146.947 4.05732C145.455 3.89734 143.949 4.16018 142.6 4.81578C141.251 5.47139 140.114 6.49332 139.318 7.76478C138.522 9.03624 138.1 10.5059 138.1 12.0059C138.1 13.5058 138.522 14.9755 139.318 16.247C140.114 17.5184 141.251 18.5403 142.6 19.196C143.949 19.8516 145.455 20.1144 146.947 19.9544C148.438 19.7944 149.855 19.2181 151.034 18.2913C150.081 17.5437 149.312 16.5892 148.783 15.5C148.254 14.4108 147.979 13.2156 147.981 12.0048Z" fill="#EB001B"/>
<path d="M163.208 16.9574V16.6998H163.319V16.6465H163.055V16.6998H163.159V16.9574H163.208ZM163.721 16.9574V16.6465H163.641L163.548 16.8685L163.455 16.6465H163.375V16.9574H163.432V16.722L163.519 16.9241H163.579L163.666 16.722V16.9574H163.721Z" fill="#F79E1B"/>
<path d="M163.971 12.0035C163.971 13.5036 163.548 14.9733 162.753 16.2448C161.957 17.5163 160.819 18.5383 159.47 19.1938C158.121 19.8493 156.614 20.1119 155.123 19.9517C153.631 19.7915 152.215 19.2149 151.036 18.2878C151.987 17.5398 152.757 16.5853 153.286 15.4965C153.815 14.4077 154.09 13.213 154.09 12.0024C154.09 10.7918 153.815 9.59706 153.286 8.50825C152.757 7.41944 151.987 6.46502 151.036 5.717C152.215 4.78988 153.631 4.21326 155.123 4.05305C156.614 3.89284 158.121 4.15551 159.47 4.81102C160.819 5.46654 161.957 6.48845 162.753 7.75995C163.548 9.03145 163.971 10.5012 163.971 12.0013V12.0035Z" fill="#F79E1B"/>
<defs>
<clipPath id="clip0">
<rect width="39.9035" height="12.1581" fill="white" transform="translate(0.600098 6)"/>
</clipPath>
<clipPath id="clip1">
<rect width="44" height="11.9628" fill="white" transform="translate(90 6)"/>
</clipPath>
</defs>
</svg>
